<svg xmlns="http://www.w3.org/2000/svg" viewBox="0 0 100 100" width="100" height="100">
  <defs>
    <linearGradient id="logoGradient" x1="0%" y1="0%" x2="100%" y2="100%">
      <stop offset="0%" style="stop-color:#7E57C2;stop-opacity:1" />
      <stop offset="100%" style="stop-color:#9C27B0;stop-opacity:1" />
    </linearGradient>
    <linearGradient id="accentGradient" x1="0%" y1="0%" x2="100%" y2="100%">
      <stop offset="0%" style="stop-color:#87CEEB;stop-opacity:1" />
      <stop offset="100%" style="stop-color:#5DADE2;stop-opacity:1" />
    </linearGradient>
  </defs>
  
  <!-- Background circle -->
  <circle cx="50" cy="50" r="45" fill="url(#logoGradient)" stroke="none"/>
  
  <!-- Book/Education symbol -->
  <g transform="translate(25, 20)">
    <!-- Book base -->
    <path d="M5 15 L45 15 L45 55 L5 55 Z" fill="white" opacity="0.9"/>
    
    <!-- Book pages -->
    <path d="M8 18 L42 18 L42 52 L8 52 Z" fill="white" opacity="0.7"/>
    <path d="M11 21 L39 21 L39 49 L11 49 Z" fill="white" opacity="0.5"/>
    
    <!-- Book binding -->
    <rect x="23" y="15" width="4" height="40" fill="url(#accentGradient)"/>
    
    <!-- Text lines -->
    <line x1="14" y1="26" x2="22" y2="26" stroke="url(#logoGradient)" stroke-width="1.5" opacity="0.8"/>
    <line x1="28" y1="26" x2="36" y2="26" stroke="url(#logoGradient)" stroke-width="1.5" opacity="0.8"/>
    <line x1="14" y1="31" x2="36" y2="31" stroke="url(#logoGradient)" stroke-width="1.5" opacity="0.6"/>
    <line x1="14" y1="36" x2="22" y2="36" stroke="url(#logoGradient)" stroke-width="1.5" opacity="0.6"/>
    <line x1="28" y1="36" x2="36" y2="36" stroke="url(#logoGradient)" stroke-width="1.5" opacity="0.6"/>
    <line x1="14" y1="41" x2="36" y2="41" stroke="url(#logoGradient)" stroke-width="1.5" opacity="0.4"/>
  </g>
  
  <!-- Network/Community symbol -->
  <g transform="translate(15, 65)">
    <!-- Connection lines -->
    <line x1="10" y1="15" x2="25" y2="8" stroke="url(#accentGradient)" stroke-width="2" opacity="0.7"/>
    <line x1="25" y1="8" x2="40" y2="15" stroke="url(#accentGradient)" stroke-width="2" opacity="0.7"/>
    <line x1="40" y1="15" x2="55" y2="8" stroke="url(#accentGradient)" stroke-width="2" opacity="0.7"/>
    <line x1="10" y1="15" x2="40" y2="15" stroke="url(#accentGradient)" stroke-width="2" opacity="0.5"/>
    <line x1="25" y1="8" x2="55" y2="8" stroke="url(#accentGradient)" stroke-width="2" opacity="0.5"/>
    
    <!-- User nodes -->
    <circle cx="10" cy="15" r="4" fill="white"/>
    <circle cx="25" cy="8" r="4" fill="white"/>
    <circle cx="40" cy="15" r="4" fill="white"/>
    <circle cx="55" cy="8" r="4" fill="white"/>
    
    <!-- User icons -->
    <circle cx="10" cy="15" r="2" fill="url(#logoGradient)"/>
    <circle cx="25" cy="8" r="2" fill="url(#logoGradient)"/>
    <circle cx="40" cy="15" r="2" fill="url(#logoGradient)"/>
    <circle cx="55" cy="8" r="2" fill="url(#logoGradient)"/>
  </g>
  
  <!-- Gamification star -->
  <g transform="translate(70, 25)">
    <path d="M15 5 L18 12 L25 12 L20 17 L22 24 L15 20 L8 24 L10 17 L5 12 L12 12 Z" 
          fill="url(#accentGradient)" opacity="0.8"/>
    <circle cx="15" cy="15" r="2" fill="white"/>
  </g>
  
  <!-- Brand initial 'C' -->
  <g transform="translate(42, 35)">
    <path d="M16 10 Q10 10 10 16 Q10 22 16 22 Q20 22 20 19" 
          stroke="white" stroke-width="3" fill="none" stroke-linecap="round"/>
  </g>
</svg>
